<?xml version="1.0" encoding="UTF-8"?>
<svg width="297px" height="74px" viewBox="0 0 297 74" version="1.1" xmlns="http://www.w3.org/2000/svg" xmlns:xlink="http://www.w3.org/1999/xlink">
    <title>logo-alterfood-black</title>
    <g id="maquette" stroke="none" stroke-width="1" fill="none" fill-rule="evenodd">
        <g id="iPhone-SE-gen2-(burger-menu)" transform="translate(-40.000000, -2864.000000)" fill="#000000" fill-rule="nonzero">
            <g id="Alterfood" transform="translate(0.000000, 2828.000000)">
                <g id="logo-alterfood-black" transform="translate(40.000000, 36.000000)">
                    <g id="Group">
                        <path d="M23.5692661,34.6097561 L11.3077982,34.6097561 L8.71926606,43.3292683 L0,43.3292683 L13.8963303,0.402439024 L20.8444954,0.402439024 L34.7408257,43.3292683 L26.0215596,43.3292683 L23.5692661,34.6097561 Z M21.6619266,27.7682927 L17.5747706,13.2804878 L13.4876147,27.7682927 L21.6619266,27.7682927 Z" id="Shape"></path>
                        <path d="M70.0266055,38.5 C67.9830275,41.3170732 64.1683486,43.8658537 59.1275229,43.8658537 C50.2720183,43.8658537 45.6399083,38.6341463 45.6399083,28.4390244 L45.6399083,7.7804878 L31.743578,7.7804878 L31.743578,0.536585366 L53.6779817,0.536585366 L53.6779817,29.2439024 C53.6779817,34.3414634 55.7215596,36.6219512 58.9912844,36.6219512 C61.1711009,36.6219512 62.5334862,35.6829268 63.6233945,34.2073171 L70.0266055,38.5 Z" id="Path"></path>
                        <path d="M82.4243119,21.4634146 L82.4243119,31.5243902 C82.4243119,37.0243902 88.6912844,37.5609756 92.3697248,35.6829268 L95.3669725,41.7195122 C93.3233945,43.0609756 91.0073394,43.8658537 86.6477064,43.8658537 C78.8821101,43.8658537 74.5224771,38.2317073 74.5224771,31.1219512 L74.5224771,21.4634146 L66.6206422,21.4634146 L66.6206422,14.0853659 L74.5224771,14.0853659 L74.5224771,3.8902439 L82.4243119,1.47560976 L82.4243119,14.2195122 L95.3669725,14.2195122 L95.3669725,21.4634146 L82.4243119,21.4634146 Z" id="Path"></path>
                        <path d="M128.881651,31.6585366 L108.718349,31.6585366 C109.53578,34.4756098 111.851835,36.4878049 115.666514,36.4878049 C118.391284,36.4878049 120.707339,35.1463415 122.069725,33.804878 L127.246789,38.5 C124.930734,41.7195122 120.162385,43.8658537 115.666514,43.8658537 C106.402294,43.8658537 100.544037,37.1585366 100.544037,28.7073171 C100.544037,20.2560976 105.993578,13.5487805 115.394037,13.5487805 C120.843578,13.5487805 129.290367,16.7682927 129.290367,28.1707317 C129.154128,29.3780488 129.01789,30.4512195 128.881651,31.6585366 Z M108.58211,25.8902439 L121.252294,25.8902439 C120.979817,23.4756098 118.936239,21.0609756 115.12156,21.0609756 C111.443119,20.9268293 109.399541,22.9390244 108.58211,25.8902439 Z" id="Shape"></path>
                        <path d="M162.39633,19.5853659 L155.175688,24.0121951 C154.08578,22 152.723394,21.195122 150.816055,21.195122 C147.273853,21.195122 144.549083,25.8902439 144.549083,31.3902439 L144.549083,43.3292683 L136.647248,43.3292683 L136.647248,14.2195122 L144.549083,14.2195122 L144.549083,19.4512195 C146.047706,16.097561 149.45367,13.6829268 153.268349,13.6829268 C157.355505,13.6829268 160.352752,15.8292683 162.39633,19.5853659 Z" id="Path"></path>
                        <path d="M174.657798,14.2195122 L174.657798,12.7439024 C174.657798,5.63414634 179.017431,0 186.783028,0 C191.142661,0 193.458716,0.804878049 195.502294,2.14634146 L192.505046,8.18292683 C188.962844,6.30487805 182.559633,6.84146341 182.559633,12.3414634 L182.559633,14.0853659 L195.502294,14.0853659 L195.502294,21.4634146 L182.559633,21.4634146 L182.559633,43.4634146 L174.657798,43.4634146 L174.657798,21.4634146 L167.709633,21.4634146 L167.709633,14.0853659 L174.657798,14.0853659 L174.657798,14.2195122 Z" id="Path"></path>
                        <path d="M229.016972,28.8414634 C229.016972,37.1585366 222.477523,44 214.166972,44 C205.311468,44 199.316972,37.2926829 199.316972,28.8414634 C199.316972,20.3902439 205.038991,13.6829268 214.166972,13.6829268 C222.477523,13.6829268 229.016972,20.3902439 229.016972,28.8414634 Z M221.115138,28.8414634 C221.115138,24.5487805 218.11789,21.0609756 214.166972,21.0609756 C210.216055,21.0609756 207.218807,24.5487805 207.218807,28.8414634 C207.218807,33.1341463 210.216055,36.6219512 214.166972,36.6219512 C218.11789,36.6219512 221.115138,33.1341463 221.115138,28.8414634 Z" id="Shape"></path>
                        <path d="M263.076606,28.8414634 C263.076606,37.1585366 256.537156,44 248.226606,44 C239.371101,44 233.376606,37.2926829 233.376606,28.8414634 C233.376606,20.3902439 239.098624,13.6829268 248.226606,13.6829268 C256.673394,13.6829268 263.076606,20.3902439 263.076606,28.8414634 Z M255.174771,28.8414634 C255.174771,24.5487805 252.177523,21.0609756 248.226606,21.0609756 C244.275688,21.0609756 241.27844,24.5487805 241.27844,28.8414634 C241.27844,33.1341463 244.275688,36.6219512 248.226606,36.6219512 C252.177523,36.6219512 255.174771,33.1341463 255.174771,28.8414634 Z" id="Shape"></path>
                        <path d="M297,0.536585366 L297,43.4634146 L289.098165,43.4634146 L289.098165,40.1097561 C287.463303,42.3902439 284.466055,44 280.923853,44 C273.158257,44 267.3,37.5609756 267.3,28.8414634 C267.3,20.1219512 273.158257,13.6829268 280.923853,13.6829268 C284.466055,13.6829268 287.463303,15.2926829 289.098165,17.4390244 L289.098165,0.536585366 L297,0.536585366 Z M289.098165,28.8414634 C289.098165,24.5487805 285.964679,21.0609756 282.15,21.0609756 C278.335321,21.0609756 275.201835,24.5487805 275.201835,28.8414634 C275.201835,33.1341463 278.335321,36.6219512 282.15,36.6219512 C285.964679,36.6219512 289.098165,33.1341463 289.098165,28.8414634 Z" id="Shape"></path>
                        <path d="M32.1522936,16.6341463 C32.1522936,13.9512195 34.3321101,11.804878 37.0568807,11.804878 C39.7816514,11.804878 41.9614679,13.9512195 41.9614679,16.6341463 C41.9614679,19.3170732 39.9178899,21.4634146 37.0568807,21.4634146 C34.3321101,21.4634146 32.1522936,19.4512195 32.1522936,16.6341463 Z" id="Path"></path>
                    </g>
                    <g id="Group" transform="translate(12.000000, 53.000000)">
                        <path d="M10.7762897,13.72 C10.094246,14.7 8.86656746,15.54 7.09325397,15.54 C4.0922619,15.54 2.59176587,13.72 2.59176587,10.22 L2.59176587,2.94 L0,2.94 L0,0.42 L5.31994048,0.42 L5.31994048,10.36 C5.31994048,12.18 6.00198413,13.02 7.09325397,13.02 C7.77529762,13.02 8.32093254,12.74 8.59375,12.18 L10.7762897,13.72 Z" id="Path"></path>
                        <polygon id="Path" points="16.5054563 0.42 19.0972222 0.42 18.1423611 5.18 16.5054563 5.18"></polygon>
                        <path d="M32.874504,15.4 L32.7380952,14.14 C32.0560516,14.98 30.5555556,15.54 29.327877,15.54 C27.0089286,15.54 25.78125,14 25.78125,12.18 C25.78125,9.52 29.0550595,8.12 32.328869,9.24 C32.1924603,7.98 31.6468254,7.42 30.1463294,7.42 C29.1914683,7.42 28.3730159,7.7 27.827381,7.98 L26.8725198,6.02 C27.6909722,5.46 28.7822421,4.9 30.5555556,4.9 C33.0109127,4.9 35.0570437,6.3 35.0570437,10.08 L35.0570437,15.26 L32.874504,15.4 L32.874504,15.4 Z M28.3730159,12.18 C28.3730159,13.02 29.0550595,13.44 30.0099206,13.44 C30.9647817,13.44 32.0560516,12.6 32.328869,11.2 C30.2827381,10.36 28.3730159,10.92 28.3730159,12.18 Z" id="Shape"></path>
                        <path d="M48.5615079,13.72 C47.8794643,14.7 46.6517857,15.54 44.8784722,15.54 C41.8774802,15.54 40.3769841,13.72 40.3769841,10.22 L40.3769841,2.94 L37.7852183,2.94 L37.7852183,0.42 L43.1051587,0.42 L43.1051587,10.36 C43.1051587,12.18 43.7872024,13.02 44.8784722,13.02 C45.5605159,13.02 46.1061508,12.74 46.3789683,12.18 L48.5615079,13.72 Z" id="Path"></path>
                        <path d="M60.2926587,12.88 L60.2926587,15.4 L51.6989087,15.4 L51.6989087,12.88 L54.6999008,12.88 L54.6999008,7.84 L52.1081349,7.84 L52.1081349,5.32 L57.4280754,5.32 L57.4280754,13.02 L60.2926587,12.88 L60.2926587,12.88 Z M54.4270833,1.68 C54.4270833,0.7 55.109127,0 56.0639881,0 C57.0188492,0 57.7008929,0.7 57.7008929,1.68 C57.7008929,2.66 57.0188492,3.36 56.0639881,3.36 C55.109127,3.36 54.4270833,2.66 54.4270833,1.68 Z" id="Shape"></path>
                        <path d="M73.9335317,9.38 L73.9335317,15.4 L71.3417659,15.4 L71.3417659,9.38 C71.3417659,7.7 70.9325397,7.56 70.5233135,7.56 C70.1140873,7.56 69.7048611,7.84 69.7048611,9.8 L69.7048611,15.4 L67.1130952,15.4 L67.1130952,9.38 C67.1130952,7.7 66.8402778,7.56 66.4310516,7.56 C66.0218254,7.56 65.4761905,7.84 65.4761905,9.8 L65.4761905,15.4 L62.8844246,15.4 L62.8844246,5.18 L65.4761905,5.18 L65.4761905,6.3 C65.8854167,5.46 66.4310516,5.04 67.249504,5.04 C68.2043651,5.04 68.8864087,5.74 69.1592262,6.44 C69.5684524,5.6 70.250496,5.04 71.3417659,5.04 C72.9786706,5.04 73.9335317,6.16 73.9335317,9.38 Z" id="Path"></path>
                        <path d="M85.6646825,11.34 L78.844246,11.34 C79.1170635,12.32 79.9355159,13.02 81.1631944,13.02 C82.1180556,13.02 82.8000992,12.6 83.3457341,12.04 L85.1190476,13.72 C84.3005952,14.84 82.8000992,15.54 81.2996032,15.54 C78.1622024,15.54 76.2524802,13.16 76.2524802,10.22 C76.2524802,7.28 78.0257937,4.9 81.1631944,4.9 C82.9365079,4.9 85.8010913,6.02 85.8010913,9.94 C85.8010913,10.5 85.6646825,10.92 85.6646825,11.34 Z M78.844246,9.24 L83.0729167,9.24 C82.9365079,8.4 82.2544643,7.56 81.0267857,7.56 C79.7991071,7.56 79.1170635,8.26 78.844246,9.24 Z" id="Shape"></path>
                        <path d="M98.077877,9.52 L98.077877,15.26 L95.4861111,15.26 L95.4861111,9.52 C95.4861111,7.84 94.53125,7.42 93.7127976,7.42 C92.8943452,7.42 91.9394841,8.12 91.9394841,9.8 L91.9394841,15.26 L89.0749008,15.26 L89.0749008,5.04 L91.6666667,5.04 L91.6666667,6.16 C92.0758929,5.6 92.8943452,4.9 94.1220238,4.9 C96.3045635,5.04 98.077877,6.44 98.077877,9.52 Z" id="Path"></path>
                        <path d="M106.125992,7.7 L106.125992,11.2 C106.125992,13.16 108.172123,13.3 109.399802,12.6 L110.354663,14.7 C109.672619,15.12 108.854167,15.4 107.490079,15.4 C104.898313,15.4 103.397817,13.44 103.397817,10.92 L103.397817,7.56 L101.078869,7.56 L101.078869,5.04 L103.397817,5.04 L103.397817,1.4 L105.989583,0.56 L105.989583,5.04 L110.354663,5.04 L110.354663,7.56 L106.125992,7.7 L106.125992,7.7 Z" id="Path"></path>
                        <path d="M121.130952,15.4 L120.994544,14.14 C120.3125,14.98 118.812004,15.54 117.584325,15.54 C115.265377,15.54 114.037698,14 114.037698,12.18 C114.037698,9.52 117.311508,8.12 120.585317,9.24 C120.448909,7.98 119.903274,7.42 118.539187,7.42 C117.584325,7.42 116.765873,7.7 116.220238,7.98 L115.265377,6.02 C116.083829,5.46 117.175099,4.9 118.948413,4.9 C121.40377,4.9 123.449901,6.3 123.449901,10.08 L123.449901,15.26 L121.130952,15.4 L121.130952,15.4 Z M116.629464,12.18 C116.629464,13.02 117.311508,13.44 118.266369,13.44 C119.22123,13.44 120.3125,12.6 120.585317,11.2 C118.539187,10.36 116.629464,10.92 116.629464,12.18 Z" id="Shape"></path>
                        <path d="M131.361607,7.7 L131.361607,11.2 C131.361607,13.16 133.407738,13.3 134.635417,12.6 L135.590278,14.7 C134.908234,15.12 134.089782,15.4 132.725694,15.4 C130.133929,15.4 128.633433,13.44 128.633433,10.92 L128.633433,7.56 L126.314484,7.56 L126.314484,5.04 L128.633433,5.04 L128.633433,1.4 L131.225198,0.56 L131.225198,5.04 L135.590278,5.04 L135.590278,7.56 L131.361607,7.7 L131.361607,7.7 Z" id="Path"></path>
                        <path d="M148.685516,12.88 L148.685516,15.4 L140.091766,15.4 L140.091766,12.88 L143.092758,12.88 L143.092758,7.84 L140.500992,7.84 L140.500992,5.32 L145.820933,5.32 L145.820933,13.02 L148.685516,12.88 L148.685516,12.88 Z M142.683532,1.68 C142.683532,0.7 143.365575,0 144.320437,0 C145.275298,0 145.957341,0.7 145.957341,1.68 C145.957341,2.66 145.275298,3.36 144.320437,3.36 C143.365575,3.5 142.683532,2.66 142.683532,1.68 Z" id="Shape"></path>
                        <path d="M161.644345,10.22 C161.644345,13.16 159.461806,15.54 156.733631,15.54 C153.732639,15.54 151.822917,13.16 151.822917,10.22 C151.822917,7.28 153.732639,4.9 156.733631,4.9 C159.461806,5.04 161.644345,7.28 161.644345,10.22 Z M158.916171,10.22 C158.916171,8.68 157.96131,7.56 156.597222,7.56 C155.233135,7.56 154.278274,8.82 154.278274,10.22 C154.278274,11.62 155.233135,12.88 156.597222,12.88 C157.96131,13.02 158.916171,11.76 158.916171,10.22 Z" id="Shape"></path>
                        <path d="M173.648313,9.52 L173.648313,15.26 L171.056548,15.26 L171.056548,9.52 C171.056548,7.84 170.101687,7.42 169.283234,7.42 C168.464782,7.42 167.509921,8.12 167.509921,9.8 L167.509921,15.26 L164.918155,15.26 L164.918155,5.04 L167.509921,5.04 L167.509921,6.16 C167.919147,5.6 168.737599,4.9 169.965278,4.9 C172.011409,5.04 173.648313,6.44 173.648313,9.52 Z" id="Path"></path>
                        <path d="M199.156746,11.34 L192.33631,11.34 C192.609127,12.32 193.427579,13.02 194.655258,13.02 C195.610119,13.02 196.292163,12.6 196.837798,12.04 L198.611111,13.72 C197.792659,14.84 196.292163,15.54 194.791667,15.54 C191.654266,15.54 189.744544,13.16 189.744544,10.22 C189.744544,7.28 191.517857,4.9 194.655258,4.9 C196.428571,4.9 199.293155,6.02 199.293155,9.94 C199.293155,10.5 199.156746,10.92 199.156746,11.34 Z M192.33631,9.24 L196.56498,9.24 C196.428571,8.4 195.746528,7.56 194.518849,7.56 C193.291171,7.56 192.609127,8.26 192.33631,9.24 Z" id="Shape"></path>
                        <path d="M211.56994,9.52 L211.56994,15.26 L208.978175,15.26 L208.978175,9.52 C208.978175,7.84 208.023313,7.42 207.204861,7.42 C206.386409,7.42 205.431548,8.12 205.431548,9.8 L205.431548,15.26 L202.839782,15.26 L202.839782,5.04 L205.431548,5.04 L205.431548,6.16 C205.840774,5.6 206.659226,4.9 207.886905,4.9 C209.796627,5.04 211.56994,6.44 211.56994,9.52 Z" id="Path"></path>
                        <path d="M224.52877,17.08 C224.52877,19.46 222.482639,21 219.618056,21 C216.480655,21 214.707341,19.46 214.707341,17.08 C214.707341,15.68 215.389385,14.7 216.207837,14.14 C215.93502,13.72 215.662202,12.32 216.480655,11.2 C215.798611,10.5 215.525794,9.66 215.525794,8.68 C215.525794,6.58 217.162698,4.9 219.618056,4.9 C220.436508,4.9 221.25496,5.18 221.937004,5.46 L223.301091,4.2 L224.801587,5.88 L223.4375,7.14 C223.710317,7.56 223.710317,8.12 223.710317,8.54 C223.710317,10.64 221.937004,12.18 219.618056,12.18 C219.208829,12.18 218.799603,12.18 218.526786,12.04 C218.390377,12.46 218.526786,13.02 220.027282,13.16 C222.619048,13.44 224.52877,14.56 224.52877,17.08 Z M221.800595,17.08 C221.800595,16.24 221.118552,15.82 219.754464,15.82 C219.072421,15.82 218.253968,15.82 217.981151,15.68 C217.435516,15.96 217.162698,16.38 217.162698,16.94 C217.162698,17.78 217.844742,18.48 219.481647,18.48 C220.982143,18.48 221.800595,17.78 221.800595,17.08 Z M217.981151,8.68 C217.981151,9.38 218.663194,9.94 219.481647,9.94 C220.300099,9.94 220.982143,9.38 220.982143,8.68 C220.982143,7.98 220.300099,7.42 219.481647,7.42 C218.663194,7.56 217.981151,8.12 217.981151,8.68 Z" id="Shape"></path>
                        <path d="M234.623016,15.4 L234.486607,14.14 C233.804563,14.98 232.304067,15.54 231.076389,15.54 C228.75744,15.54 227.529762,14 227.529762,12.18 C227.529762,9.52 230.803571,8.12 234.077381,9.24 C233.940972,7.98 233.395337,7.42 232.03125,7.42 C231.076389,7.42 230.257937,7.7 229.712302,7.98 L228.75744,6.02 C229.575893,5.46 230.667163,4.9 232.440476,4.9 C234.895833,4.9 236.941964,6.3 236.941964,10.08 L236.941964,15.26 L234.623016,15.4 L234.623016,15.4 Z M230.121528,12.18 C230.121528,13.02 230.803571,13.44 231.758433,13.44 C232.713294,13.44 233.804563,12.6 234.077381,11.2 C232.03125,10.36 230.121528,10.92 230.121528,12.18 Z" id="Shape"></path>
                        <path d="M249.627976,17.08 C249.627976,19.46 247.581845,21 244.717262,21 C241.579861,21 239.806548,19.46 239.806548,17.08 C239.806548,15.68 240.488591,14.7 241.307044,14.14 C241.034226,13.72 240.761409,12.32 241.579861,11.2 C240.897817,10.5 240.625,9.66 240.625,8.68 C240.625,6.58 242.261905,4.9 244.717262,4.9 C245.535714,4.9 246.354167,5.18 247.03621,5.46 L248.400298,4.2 L249.900794,5.88 L248.536706,7.14 C248.809524,7.56 248.809524,8.12 248.809524,8.54 C248.809524,10.64 247.03621,12.18 244.717262,12.18 C244.308036,12.18 243.89881,12.18 243.625992,12.04 C243.489583,12.46 243.625992,13.02 245.126488,13.16 C247.854663,13.44 249.627976,14.56 249.627976,17.08 Z M247.03621,17.08 C247.03621,16.24 246.354167,15.82 244.990079,15.82 C244.308036,15.82 243.489583,15.82 243.216766,15.68 C242.671131,15.96 242.398313,16.38 242.398313,16.94 C242.398313,17.78 243.080357,18.48 244.717262,18.48 C246.217758,18.48 247.03621,17.78 247.03621,17.08 Z M243.216766,8.68 C243.216766,9.38 243.89881,9.94 244.717262,9.94 C245.535714,9.94 246.217758,9.38 246.217758,8.68 C246.217758,7.98 245.535714,7.42 244.717262,7.42 C243.89881,7.42 243.216766,8.12 243.216766,8.68 Z" id="Shape"></path>
                        <path d="M262.177579,11.34 L255.357143,11.34 C255.62996,12.32 256.448413,13.02 257.676091,13.02 C258.630952,13.02 259.312996,12.6 259.858631,12.04 L261.631944,13.72 C260.813492,14.84 259.312996,15.54 257.8125,15.54 C254.675099,15.54 252.765377,13.16 252.765377,10.22 C252.765377,7.28 254.53869,4.9 257.676091,4.9 C259.449405,4.9 262.313988,6.02 262.313988,9.94 C262.313988,10.5 262.313988,10.92 262.177579,11.34 Z M255.357143,9.24 L259.585813,9.24 C259.449405,8.4 258.767361,7.56 257.539683,7.56 C256.312004,7.56 255.62996,8.26 255.357143,9.24 Z M257.8125,3.78 L256.175595,3.78 L257.539683,0.42 L259.858631,0.42 L257.8125,3.78 Z" id="Shape"></path>
                        <path d="M274.863591,11.34 L268.043155,11.34 C268.315972,12.32 269.134425,13.02 270.362103,13.02 C271.316964,13.02 271.999008,12.6 272.544643,12.04 L274.317956,13.72 C273.499504,14.84 271.999008,15.54 270.498512,15.54 C267.361111,15.54 265.451389,13.16 265.451389,10.22 C265.451389,7.28 267.224702,4.9 270.362103,4.9 C272.135417,4.9 275,6.02 275,9.94 C274.863591,10.5 274.863591,10.92 274.863591,11.34 Z M268.043155,9.24 L272.271825,9.24 C272.135417,8.4 271.453373,7.56 270.225694,7.56 C268.998016,7.56 268.315972,8.26 268.043155,9.24 Z" id="Shape"></path>
                    </g>
                </g>
            </g>
        </g>
    </g>
</svg>