<?xml version="1.0" encoding="UTF-8"?>
<svg width="18.9083545px" height="18.7755102px" viewBox="0 0 18.9083545 18.7755102" version="1.1" xmlns="http://www.w3.org/2000/svg" xmlns:xlink="http://www.w3.org/1999/xlink">
    <title>Fill 1</title>
    <g id="maquette" stroke="none" stroke-width="1" fill="none" fill-rule="evenodd">
        <g id="iPhone-SE-gen2-(burger-menu)" transform="translate(-15.000000, -3475.612245)" fill="#FFFFFF">
            <g id="Footer" transform="translate(0.000000, 3464.000000)">
                <g id="icons" transform="translate(15.000000, 11.000000)">
                    <path d="M9.45417983,0.612244898 C8.15523657,0.612244898 6.93011746,0.855791928 5.77878128,1.34289629 C4.62744922,1.84475827 3.62373659,2.52005315 2.76761661,3.36879123 C1.91149611,4.21752932 1.23989476,5.21755357 0.75279194,6.36888975 C0.250928053,7.52022079 0,8.7453399 0,10.0442832 C0,11.2251397 0.206646653,12.339551 0.619946092,13.3875632 C1.03324538,14.4503326 1.59414349,15.3950029 2.30265691,16.221602 C3.01117034,17.0482005 3.85251725,17.7345626 4.8267234,18.2807083 C5.80092801,18.8416151 6.84892482,19.2106268 7.97073546,19.3877551 L7.97073546,12.7897561 L5.57951225,12.7897561 L5.57951225,10.0442832 L7.97073546,10.0442832 L7.97073546,7.96303169 C7.97073546,6.78218028 8.29546484,5.87441173 8.94493904,5.2397003 C9.59440809,4.60498886 10.4652774,4.2876383 11.5575677,4.2876383 C12.0741925,4.2876383 12.5539077,4.32084808 12.9967289,4.38727281 C13.4395501,4.45369754 13.6609556,4.48690733 13.6609556,4.48690733 L13.6609556,6.78956424 L12.4653466,6.78956424 C11.8749183,6.78956424 11.472696,6.94455012 11.2586642,7.25452187 C11.0446324,7.56449879 10.937619,7.90399093 10.937619,8.2730086 L10.937619,10.0442832 L13.5502529,10.0442832 L13.1295732,12.7897561 L10.937619,12.7897561 L10.937619,19.3877551 C12.0594348,19.2106268 13.1074265,18.8416151 14.0816301,18.2807083 C15.0558388,17.7345626 15.9008772,17.0482005 16.616771,16.221602 C17.3326647,15.3950029 17.8898729,14.4503326 18.288411,13.3875632 C18.7017067,12.339551 18.9083545,11.2251397 18.9083545,10.0442832 C18.9083545,8.7453399 18.6574287,7.52022079 18.1555667,6.36888975 C17.6684623,5.21755357 16.996862,4.21752932 16.14074,3.36879123 C15.2846179,2.52005315 14.2809043,1.84475827 13.1295732,1.34289629 C11.978237,0.855791928 10.7531179,0.612244898 9.45417983,0.612244898 Z" id="Fill-1"></path>
                </g>
            </g>
        </g>
    </g>
</svg>