<?xml version="1.0" encoding="UTF-8"?>
<svg width="27px" height="27px" viewBox="0 0 27 27" version="1.1" xmlns="http://www.w3.org/2000/svg" xmlns:xlink="http://www.w3.org/1999/xlink">
    <title>Fill 1</title>
    <g id="maquette" stroke="none" stroke-width="1" fill="none" fill-rule="evenodd">
        <g id="Header" transform="translate(-333.000000, -15.000000)" fill="#FFFFFF">
            <path d="M359.736327,40.5234377 L352.775389,33.6679667 C353.689456,32.6835896 354.410153,31.5498105 354.9375,30.2665986 C355.464847,28.9833928 355.728514,27.6211016 355.728514,26.1796881 C355.728514,24.6328028 355.429692,23.1826205 354.832028,21.8290981 C354.234371,20.4755758 353.421395,19.2934605 352.393069,18.2827154 C351.364743,17.2719642 350.160654,16.4721689 348.780764,15.8832989 C347.400873,15.2944289 345.928717,15 344.364257,15 C342.799797,15 341.327641,15.2944289 339.947757,15.8832989 C338.567864,16.4721689 337.363775,17.2719642 336.335449,18.2827154 C335.307124,19.2934605 334.494144,20.4755758 333.896485,21.8290981 C333.298825,23.1826205 333,24.6328028 333,26.1796881 C333,27.7265673 333.298825,29.1767497 333.896485,30.530272 C334.494144,31.8837944 335.307124,33.0659097 336.335449,34.0766609 C337.363775,35.0874059 338.567864,35.8872036 339.947757,36.4760737 C341.327641,37.0649443 342.799797,37.359375 344.364257,37.359375 C345.717779,37.359375 347.000973,37.1396503 348.213868,36.7001952 C349.426763,36.2607395 350.525387,35.6455113 351.509764,34.8544941 L358.49707,41.7363281 C358.672852,41.9121103 358.879396,42 359.116701,42 C359.354007,42 359.560544,41.9121103 359.736327,41.7363281 C359.912109,41.5781242 360,41.3803722 360,41.1430663 C360,40.9057602 359.912109,40.6992194 359.736327,40.5234377 Z M344.51303,36 C343.192495,36 341.958851,35.7486098 340.812071,35.2458219 C339.665286,34.743034 338.661869,34.0638414 337.801783,33.2082195 C336.941696,32.3525976 336.259719,31.3470341 335.755829,30.1915045 C335.25194,29.0359749 335,27.8054838 335,26.5 C335,25.1945168 335.25194,23.9640257 335.755829,22.8084961 C336.259719,21.6529665 336.941696,20.647403 337.801783,19.7917811 C338.661869,18.9361592 339.665286,18.2569666 340.812071,17.7541787 C341.958851,17.2513909 343.192495,17 344.51303,17 C345.816192,17 347.045488,17.2513909 348.200959,17.7541787 C349.35643,18.2569666 350.364192,18.9361592 351.224275,19.7917811 C352.084364,20.647403 352.762,21.6529665 353.257201,22.8084961 C353.752402,23.9640257 354,25.1945168 354,26.5 C354,27.8054838 353.752402,29.0359749 353.257201,30.1915045 C352.762,31.3470341 352.084364,32.3525976 351.224275,33.2082195 C350.364192,34.0638414 349.35643,34.743034 348.200959,35.2458219 C347.045488,35.7486098 345.816192,36 344.51303,36 Z" id="Fill-1" transform="translate(346.500000, 28.500000) scale(-1, 1) translate(-346.500000, -28.500000) "></path>
        </g>
    </g>
</svg>