<?xml version="1.0" encoding="UTF-8"?>
<svg width="27.5px" height="24.75px" viewBox="0 0 27.5 24.75" version="1.1" xmlns="http://www.w3.org/2000/svg" xmlns:xlink="http://www.w3.org/1999/xlink">
    <title>Fill 1</title>
    <g id="maquette" stroke="none" stroke-width="1" fill="none" fill-rule="evenodd">
        <g id="Header" transform="translate(-15.000000, -16.000000)" fill="#FFFFFF">
            <path d="M16.375,18.75 L41.125,18.75 C41.4974,18.75 41.81966,18.61393 42.0918,18.3418 C42.36393,18.06966 42.5,17.7474 42.5,17.375 C42.5,17.0026 42.36393,16.68034 42.0918,16.4082 C41.81966,16.13607 41.4974,16 41.125,16 L16.375,16 C16.002602,16 15.6803399,16.13607 15.4082031,16.4082 C15.1360663,16.68034 15,17.0026 15,17.375 C15,17.7474 15.1360663,18.06966 15.4082031,18.3418 C15.6803399,18.61393 16.002602,18.75 16.375,18.75 Z M41.125,38 L16.375,38 C16.002602,38 15.6803399,38.136066 15.4082031,38.408203 C15.1360663,38.68034 15,39.002602 15,39.375 C15,39.747398 15.1360663,40.0696601 15.4082031,40.3417969 C15.6803399,40.6139337 16.002602,40.75 16.375,40.75 L41.125,40.75 C41.4974,40.75 41.81966,40.6139337 42.0918,40.3417969 C42.36393,40.0696601 42.5,39.747398 42.5,39.375 C42.5,39.002602 42.36393,38.68034 42.0918,38.408203 C41.81966,38.136066 41.4974,38 41.125,38 Z M41.125,27 L16.375,27 C16.002602,27 15.6803399,27.13607 15.4082031,27.4082 C15.1360663,27.68034 15,28.0026 15,28.375 C15,28.7474 15.1360663,29.06966 15.4082031,29.3418 C15.6803399,29.61393 16.002602,29.75 16.375,29.75 L41.125,29.75 C41.4974,29.75 41.81966,29.61393 42.0918,29.3418 C42.36393,29.06966 42.5,28.7474 42.5,28.375 C42.5,28.0026 42.36393,27.68034 42.0918,27.4082 C41.81966,27.13607 41.4974,27 41.125,27 Z" id="Fill-1"></path>
        </g>
    </g>
</svg>