<?xml version="1.0" encoding="UTF-8"?>
<svg width="20px" height="20px" viewBox="0 0 20 20" version="1.1" xmlns="http://www.w3.org/2000/svg" xmlns:xlink="http://www.w3.org/1999/xlink">
    <title>Fill 1</title>
    <g id="maquette" stroke="none" stroke-width="1" fill="none" fill-rule="evenodd">
        <g id="iPhone-SE-gen2-(burger-menu)" transform="translate(-39.000000, -3475.000000)" fill="#FFFFFF">
            <g id="Footer" transform="translate(0.000000, 3464.000000)">
                <g id="icons" transform="translate(15.000000, 11.000000)">
                    <path d="M34,5 C33.3062552,5 32.6548255,5.12658008 32.0456883,5.37974613 C31.4365452,5.64979227 30.9077875,6.01265241 30.4593917,6.46835601 C30.0109964,6.92405372 29.6514398,7.44725413 29.3807112,8.03797491 C29.1269025,8.64556989 29,9.29535627 29,9.98733993 C29,10.6793295 29.1269025,11.32911 29.3807112,11.9367108 C29.6514398,12.5443058 30.0109964,13.0759492 30.4593917,13.5316469 C30.9077875,13.9873441 31.4365452,14.3417706 32.0456883,14.5949367 C32.6548255,14.8649805 33.3062552,15 34,15 L34,15 C34.6937471,15 35.3451769,14.8649805 35.9543141,14.5949367 C36.5634572,14.3417706 37.0922148,13.9873441 37.5406107,13.5316469 C37.9890065,13.0759492 38.3485643,12.5443058 38.61929,11.9367108 C38.8730986,11.32911 39,10.6793295 39,9.98733993 C39,9.29535627 38.8730986,8.64556989 38.61929,8.03797491 C38.3485643,7.44725413 37.9890065,6.92405372 37.5406107,6.46835601 C37.0922148,6.01265241 36.5634572,5.64979227 35.9543141,5.37974613 C35.3451769,5.12658008 34.6937471,5 34,5 L34,5 Z M34.5,14 C33.5338473,14 32.7089864,13.6582091 32.0253918,12.9746082 C31.3417909,12.2910136 31,11.4661527 31,10.5 C31,9.53385364 31.3417909,8.70898636 32.0253918,8.02539182 C32.7089864,7.34179727 33.5338473,7 34.5,7 L34.5,7 C35.4661527,7 36.2910136,7.34179727 36.9746082,8.02539182 C37.6582091,8.70898636 38,9.53385364 38,10.5 C38,11.4661527 37.6582091,12.2910136 36.9746082,12.9746082 C36.2910136,13.6582091 35.4661527,14 34.5,14 L34.5,14 Z M40,5 C40,5.27536225 39.9021737,5.51086737 39.7065212,5.70652042 C39.5108686,5.90217347 39.2753641,6 39,6 C38.7246359,6 38.4891314,5.90217347 38.2934788,5.70652042 C38.0978263,5.51086737 38,5.27536225 38,5 C38,4.7246327 38.0978263,4.48912758 38.2934788,4.29347452 C38.4891314,4.09782147 38.7246359,4 39,4 C39.2753641,4 39.5108686,4.09782147 39.7065212,4.29347452 C39.9021737,4.48912758 40,4.7246327 40,5 Z M43.4791636,3.45454897 C43.2187515,2.77921679 42.8368061,2.19047728 42.3333333,1.68831232 C41.8298606,1.18614735 41.2482667,0.805200034 40.5885394,0.545458282 L40.562497,0.545458282 C40.1979152,0.406928139 39.8116364,0.294372776 39.4036485,0.207792192 C38.9956606,0.121211608 38.5746545,0.0779243389 38.1406242,0.0779243389 L38.1145818,0.0779243389 C37.5937455,0.0432933143 37.1163212,0.0216466572 36.6822909,0.0129904122 C36.2482606,0.00432812246 35.3541758,0 34,0 C32.6458242,0 31.7517394,0.00432812246 31.3177091,0.0129904122 C30.8836788,0.0216466572 30.4062545,0.0432933143 29.885417,0.0779243389 C29.4513867,0.0779243389 29.0260436,0.121211608 28.6093752,0.207792192 C28.1927061,0.294372776 27.7934048,0.406928139 27.4114582,0.545458282 L27.4635418,0.545458282 C26.7864552,0.805200034 26.196183,1.18614735 25.6927085,1.68831232 C25.1892333,2.19047728 24.8072927,2.77056055 24.546875,3.42857419 L24.5208333,3.45454897 C24.3819438,3.8181838 24.2734379,4.20346528 24.1953125,4.61039342 C24.1171871,5.01732156 24.0694445,5.43722802 24.0520833,5.87013094 L24.0520833,5.87013094 C24.0347221,6.40693298 24.0217014,6.88744524 24.0130208,7.31169192 C24.0043402,7.73593254 24,8.62337295 24,9.97402522 C24,11.341996 24.0043402,12.2380927 24.0130208,12.6623394 C24.0217014,13.08658 24.0347221,13.5670983 24.0520833,14.1038967 C24.0694445,14.5194829 24.1171871,14.9307343 24.1953125,15.3376625 C24.2734379,15.7445912 24.3819438,16.1385265 24.5208333,16.5194811 C24.7986127,17.194809 25.1892333,17.7835473 25.6927085,18.2857141 C26.196183,18.7878815 26.7690939,19.16883 27.4114582,19.4285715 L27.4635418,19.4285715 C27.8107655,19.5844164 28.1883661,19.7056273 28.5963539,19.7922078 C29.0043424,19.8787883 29.4253448,19.9307358 29.8593752,19.948052 L29.885417,19.948052 C30.4236121,19.9653681 30.9053818,19.9783549 31.3307273,19.987013 C31.7560788,19.995671 32.6458242,20 34,20 C35.3541758,20 36.2482606,19.995671 36.6822909,19.987013 C37.1163212,19.9783549 37.6024303,19.9653681 38.1406242,19.948052 C38.5746545,19.9307358 39,19.8831173 39.4166667,19.8051948 C39.8333333,19.7272724 40.2326364,19.6103904 40.6145818,19.4545455 L40.562497,19.4805195 C41.2395879,19.2034617 41.8298606,18.8181844 42.3333333,18.3246757 C42.8368061,17.8311664 43.2187515,17.2554148 43.4791636,16.597403 L43.4791636,16.5454547 C43.6354182,16.1645007 43.7526061,15.7705654 43.8307273,15.3636366 C43.9088545,14.9567085 43.9479152,14.5454571 43.9479152,14.1298703 C43.9652788,13.5930731 43.978297,13.1125548 43.9869818,12.6883141 C43.9956606,12.2640675 44,11.3766331 44,10.0259748 C44,8.67531646 44,7.78355398 44,7.35065106 C44,6.91774814 43.9826364,6.441564 43.9479152,5.9220805 C43.9479152,5.47185904 43.9045152,5.03463405 43.8177091,4.61039342 C43.730903,4.18614674 43.6093758,3.78355277 43.4531273,3.40259941 L43.4791636,3.45454897 Z M41.9492854,13.9493668 C41.9492854,14.2700432 41.9197028,14.5864957 41.8605377,14.8987339 C41.8013726,15.2109714 41.712625,15.5105468 41.5942948,15.7974678 L41.6196521,15.7721517 C41.4506073,16.1940946 41.2054965,16.5653989 40.8843078,16.8860753 C40.563125,17.2067523 40.199684,17.443037 39.7939788,17.5949367 L39.7686215,17.6202527 C39.4981474,17.7215191 39.2107783,17.8016869 38.9064965,17.860759 C38.6022146,17.919831 38.2894882,17.9493668 37.9683054,17.9493668 L37.9683054,17.9493668 C37.4442641,17.9662445 36.983625,17.9789025 36.5863703,17.9873414 C36.1891156,17.9957803 35.3312276,18 34.0126769,18 C32.6941321,18 31.8362382,18 31.4389835,18 C31.0417288,18 30.5810896,17.9831223 30.0570519,17.9493668 C29.7189629,17.9493668 29.3977824,17.919831 29.0935024,17.860759 C28.7892217,17.8016869 28.493398,17.7130802 28.2060224,17.5949367 L28.2313785,17.6202527 C27.8087671,17.4514753 27.4368744,17.2067523 27.1156893,16.8860753 C26.7945047,16.5653989 26.5493933,16.2025334 26.3803491,15.7974678 L26.3803491,15.7721517 C26.2789222,15.5021079 26.1986268,15.2151911 26.1394611,14.9113919 C26.0802954,14.6075926 26.0507134,14.2953598 26.0507134,13.9746828 L26.0507134,13.9493668 C26.0169045,13.4430359 26,12.9873441 26,12.5822807 C26,12.1772115 26,11.3248994 26,10.0253148 C26,8.7088561 26,7.85231951 26,7.45569329 C26,7.05906707 26.0169045,6.5991567 26.0507134,6.0759504 C26.0507134,5.73839567 26.0802954,5.41350248 26.1394611,5.10126495 C26.1986268,4.78902741 26.2873738,4.48945141 26.4057052,4.20253107 L26.3803491,4.25316546 C26.5493933,3.81434195 26.7945047,3.43460172 27.1156893,3.11392119 C27.4368744,2.79324655 27.8087671,2.55696059 28.2313785,2.40506332 C28.5018502,2.30379454 28.7892217,2.2236303 29.0935024,2.16455292 C29.3977824,2.10548143 29.7189629,2.06750859 30.0570519,2.05063439 L30.0570519,2.05063439 C30.5641887,2.03375429 31.0206026,2.02109275 31.4263078,2.01265565 C31.832013,2.00421855 32.6941321,2 34.0126769,2 C35.3312276,2 36.1891156,2.00421855 36.5863703,2.01265565 C36.983625,2.02109275 37.4442641,2.03375429 37.9683054,2.05063439 C38.2894882,2.06750859 38.6022146,2.10548143 38.9064965,2.16455292 C39.2107783,2.2236303 39.5065979,2.30379454 39.7939788,2.40506332 L39.7686215,2.40506332 C40.1912335,2.57384069 40.563125,2.81434519 40.8843078,3.12658273 C41.2054965,3.43882027 41.4506073,3.80590485 41.6196521,4.22784827 L41.6196521,4.25316546 C41.7210755,4.50633151 41.8013726,4.78902741 41.8605377,5.10126495 C41.9197028,5.41350248 41.9492854,5.72995268 41.9492854,6.05063321 L41.9492854,6.05063321 C41.9661922,6.55696531 41.9788679,7.01265712 41.9873184,7.41772045 C41.9957748,7.82278377 42,8.6835389 42,10 C42,11.3164623 42,12.172993 42,12.5696192 C42,12.9662454 41.9915436,13.4261558 41.9746427,13.9493668 L41.9492854,13.9493668 Z" id="Fill-1"></path>
                </g>
            </g>
        </g>
    </g>
</svg>