<?xml version="1.0" encoding="UTF-8"?>
<svg width="108.571842px" height="27px" viewBox="0 0 108.571842 27" version="1.1" xmlns="http://www.w3.org/2000/svg" xmlns:xlink="http://www.w3.org/1999/xlink">
    <title>Leamo-Logo</title>
    <g id="maquette" stroke="none" stroke-width="1" fill="none" fill-rule="evenodd">
        <g id="iPhone-SE-gen2-(accueil)" transform="translate(-133.000000, -15.000000)" fill="#FFFFFF" fill-rule="nonzero">
            <g id="Leamo-Logo" transform="translate(133.000000, 15.000000)">
                <path d="M95.4894826,21.2995936 C94.772105,20.2561353 94.4199378,18.7300774 94.4199378,16.7344633 C94.4199378,14.7649357 94.7851482,13.2519211 95.515569,12.221506 C96.2459899,11.1910908 97.3416212,10.6693617 98.8285493,10.6693617 C100.302434,10.6693617 101.411109,11.1910908 102.14153,12.221506 C102.87195,13.2519211 103.237161,14.7649357 103.237161,16.7344633 C103.237161,18.703991 102.87195,20.2300488 102.14153,21.2865504 C101.411109,22.343052 100.315477,22.8778244 98.8285493,22.8778244 C97.3155347,22.8647812 96.193817,22.343052 95.4894826,21.2995936 M102.845864,26.3081937 C104.058884,25.8386375 105.089299,25.1603895 105.937109,24.2734499 C106.784919,23.3865103 107.437081,22.3039223 107.893594,21.0387291 C108.350107,19.7735358 108.571842,18.3257373 108.571842,16.7214201 C108.571842,15.1431894 108.350107,13.7214773 107.906637,12.4432409 C107.463167,11.1780476 106.811006,10.0954596 105.963196,9.2215632 C105.115386,8.34766683 104.084971,7.6694189 102.87195,7.19986264 C101.65893,6.73030638 100.302434,6.49552825 98.8024629,6.49552825 C97.3285779,6.49552825 95.9720821,6.73030638 94.772105,7.19986264 C93.5590846,7.6694189 92.5286695,8.34766683 91.6808596,9.2215632 C90.8330497,10.0954596 90.1808882,11.1650044 89.7243752,12.4432409 C89.2678621,13.7084341 89.0461272,15.1431894 89.0461272,16.7214201 C89.0461272,20.0213572 89.8939372,22.5647869 91.6026002,24.3386661 C93.3112633,26.1125453 95.7112175,26.9994849 98.8155061,26.9994849 C100.289391,27.0125281 101.645887,26.77775 102.845864,26.3081937 M58.8119215,26.4255828 L63.9900835,26.4255828 L63.9900835,14.8040654 C63.9900835,14.2432065 64.0944294,13.7084341 64.303121,13.2258346 C64.5118127,12.7432351 64.7857205,12.3258518 65.1378877,11.9867278 C65.5552711,11.5693445 65.9856976,11.2693502 66.4161242,11.0997882 C66.8465508,10.9302263 67.3291503,10.8389236 67.8378362,10.8389236 C68.1639169,10.8389236 68.4639112,10.8910966 68.7639055,10.9823992 C69.0638998,11.086745 69.3117211,11.256307 69.5204128,11.5041283 C69.7291045,11.7519497 69.8986665,12.0910737 70.0160555,12.5215002 C70.1334446,12.9519268 70.1986607,13.5127857 70.1986607,14.2040768 L70.1986607,26.4255828 L75.3768228,26.4255828 L75.3768228,14.5823305 C75.3768228,14.0866878 75.4811686,13.6171315 75.6898603,13.1736617 C75.898552,12.7301919 76.1724598,12.338895 76.524627,11.9867278 C76.9420103,11.5693445 77.3724369,11.2693502 77.8028635,11.0997882 C78.2332901,10.9302263 78.7158895,10.8389236 79.2245755,10.8389236 C79.5506562,10.8389236 79.8506505,10.8910966 80.1506448,10.9823992 C80.4506391,11.086745 80.6984604,11.256307 80.9071521,11.5041283 C81.1158438,11.7519497 81.2854057,12.0910737 81.4027948,12.5215002 C81.5201839,12.9519268 81.5854,13.5127857 81.5854,14.2040768 L81.5854,26.4255828 L86.7635621,26.4255828 L86.7635621,13.5127857 C86.7635621,11.0476153 86.2679194,9.26069289 85.2635907,8.16506162 C84.259262,7.06943035 82.7592907,6.52161471 80.7636766,6.52161471 C79.5767427,6.52161471 78.4941546,6.7824793 77.5028692,7.30420847 C76.5115838,7.82593765 75.5724713,8.67374756 74.6855317,9.86068144 C74.3203212,8.7780934 73.681203,7.94332672 72.7942634,7.38246785 C71.9073238,6.82160899 70.7595196,6.53465794 69.3508508,6.53465794 C68.2943492,6.53465794 67.2769773,6.79552253 66.3117784,7.3172517 C65.3465794,7.83898088 64.5118127,8.63461788 63.7944351,9.71720592 L63.7944351,7.10856003 L58.7597485,7.10856003 L58.7597485,26.4255828 L58.8119215,26.4255828 Z M50.8946812,18.7952936 C50.8946812,19.5909306 50.7512057,20.2430921 50.4512114,20.7778645 C50.1512171,21.3126369 49.7729635,21.7430634 49.3034072,22.0952306 C48.4686405,22.7082624 47.3730093,23.0212999 46.0425998,23.0212999 C45.2469629,23.0212999 44.6339311,22.8386947 44.1904613,22.4604411 C43.7469915,22.0952306 43.5252566,21.5865447 43.5252566,20.9474264 C43.5252566,20.5300431 43.5904727,20.1517895 43.7078618,19.7996223 C43.8252508,19.4604983 44.0730722,19.1474608 44.4252394,18.8865962 C44.7774066,18.6257316 45.2991358,18.4170399 45.9643405,18.2344347 C46.6295452,18.0648727 47.5034415,17.9474837 48.5860296,17.8953108 L50.881638,17.7779217 L50.881638,18.7952936 L50.8946812,18.7952936 Z M50.999027,26.4255828 L55.8902381,26.4255828 L55.8902381,14.2171201 C55.8902381,13.0301862 55.7467625,11.9606414 55.4598115,11.0215289 C55.1728604,10.0693731 54.7163474,9.26069289 54.0902724,8.59548819 C53.4641974,7.93028349 52.6294307,7.42159754 51.5859724,7.05638712 C50.5555572,6.70421992 49.290364,6.52161471 47.8164791,6.52161471 C45.4034816,6.52161471 43.4730837,6.97812774 42.0383284,7.87811057 C40.6035732,8.7780934 39.7166336,10.2389351 39.3775096,12.2606357 L44.1122019,12.7041055 C44.4121962,11.1519612 45.5860868,10.3693674 47.6338738,10.3693674 C48.5208134,10.3693674 49.290364,10.5911023 49.9425254,11.0345721 C50.5946869,11.4780419 50.9207677,12.2867221 50.9207677,13.473656 L50.9207677,14.438855 L48.4425541,14.556244 C47.2034473,14.6084169 45.9904269,14.725806 44.8034931,14.9214545 C43.6035159,15.1171029 42.5339711,15.4562269 41.5687722,15.9257831 C40.6035732,16.3953394 39.8340226,17.0475009 39.2340341,17.8822675 C38.6470888,18.7170342 38.3470945,19.8126655 38.3470945,21.1430749 C38.3470945,22.1604468 38.5166565,23.0212999 38.8688237,23.7517208 C39.2079476,24.4821416 39.6775039,25.0821302 40.251406,25.5516864 C40.8253081,26.0212427 41.503556,26.3603667 42.2861498,26.5821016 C43.0687435,26.8038365 43.8774238,26.9212255 44.7513201,26.9212255 C46.2512915,26.9212255 47.4773551,26.6473177 48.4295108,26.1125453 C49.3816666,25.5647297 50.2425197,24.8734385 50.999027,23.9995421 L50.999027,26.4255828 L50.999027,26.4255828 Z M23.8038937,14.6214602 C23.8299801,14.0345149 23.934326,13.4866992 24.1430177,12.9780133 C24.3386661,12.4693273 24.6125739,12.0258575 24.9777843,11.6476039 C25.3299515,11.2693502 25.7734213,10.9693559 26.2951505,10.7345778 C26.8168797,10.5128429 27.4168682,10.3954538 28.1081594,10.3954538 C29.4907417,10.3954538 30.5081136,10.7606643 31.1602751,11.5041283 C31.8124366,12.2475924 32.1385173,13.2780075 32.1385173,14.6084169 L23.8038937,14.6084169 L23.8038937,14.6214602 Z M31.8646095,20.3865676 C31.499399,22.1082739 30.2863787,22.9821702 28.2385917,22.9821702 C26.7647068,22.9821702 25.642989,22.5387004 24.9125682,21.6648041 C24.1691041,20.7909077 23.7778072,19.5778874 23.7256343,18.0257431 L37.1210309,18.0257431 L37.1210309,15.9518696 C37.1210309,13.0693159 36.3775669,10.7737075 34.8775955,9.06504445 C33.3906673,7.35638139 31.1602751,6.50857148 28.199462,6.50857148 C26.7647068,6.50857148 25.4603838,6.74334961 24.2734499,7.18681941 C23.0865161,7.64333244 22.0691442,8.32158037 21.2213343,9.20851997 C20.3735244,10.0954596 19.7083197,11.1780476 19.2387634,12.4432409 C18.7692071,13.7084341 18.534429,15.1692758 18.534429,16.7866363 C18.534429,20.0474436 19.3431092,22.5647869 20.9604697,24.3386661 C22.5778301,26.1125453 24.9908276,26.9994849 28.199462,26.9994849 C30.8602808,26.9994849 32.8950246,26.438626 34.2906501,25.3169083 C35.6862757,24.1951906 36.5471288,22.5517437 36.899296,20.3735244 L31.8646095,20.3735244 L31.8646095,20.3865676 Z M0,26.4255828 L17.4257545,26.4255828 L18.0126998,21.6908905 L5.51728604,21.6908905 L5.51728604,-1.77635684e-15 L0,-1.77635684e-15 L0,26.4255828 Z" id="Shape"></path>
            </g>
        </g>
    </g>
</svg>