<?xml version="1.0" encoding="UTF-8"?>
<svg width="21.674608px" height="17.5510204px" viewBox="0 0 21.674608 17.5510204" version="1.1" xmlns="http://www.w3.org/2000/svg" xmlns:xlink="http://www.w3.org/1999/xlink">
    <title>Fill 1</title>
    <g id="maquette" stroke="none" stroke-width="1" fill="none" fill-rule="evenodd">
        <g id="iPhone-SE-gen2-(burger-menu)" transform="translate(-64.591837, -3476.224490)" fill="#FFFFFF">
            <g id="Footer" transform="translate(0.000000, 3464.000000)">
                <g id="icons" transform="translate(15.000000, 11.000000)">
                    <path d="M68.9984716,5.58002993 C68.9984716,5.68312262 68.9984716,5.78191478 68.9984716,5.87641242 C68.9984716,5.97091005 68.9984716,6.06970821 68.9984716,6.1727949 C68.9984716,7.63324066 68.7235677,9.11084655 68.173754,10.6056546 C67.6239404,12.1004625 66.816413,13.4534989 65.7511478,14.6648086 C64.6858827,15.8761189 63.3714989,16.8597562 61.8079665,17.615751 C60.244428,18.3889277 58.4403779,18.7755102 56.3957562,18.7755102 C55.1414923,18.7755102 53.9387908,18.5994004 52.7876171,18.2471755 C51.6364434,17.8949506 50.5711939,17.4095747 49.5918367,16.7910335 C49.7808354,16.8082152 49.9612406,16.8211012 50.1330576,16.8296921 C50.3048749,16.8382829 50.4852799,16.8425787 50.6742788,16.8425787 C50.6742788,16.8425787 50.6742788,16.8425787 50.6742788,16.8425787 C50.6742788,16.8425787 50.682869,16.8425787 50.7000507,16.8425787 C51.730953,16.8425787 52.7145903,16.6707639 53.6509932,16.3271302 C54.5873961,15.9834959 55.433582,15.5195968 56.1895769,14.9354191 L56.1638037,14.9354191 C55.2016295,14.9182374 54.3468526,14.626153 53.5994486,14.0591571 C52.8520446,13.4921611 52.3323059,12.770541 52.0402167,11.8942712 L52.0402167,11.868504 C52.1604887,11.8856821 52.2936449,11.9028662 52.4396895,11.9200443 C52.5857341,11.9372285 52.7274805,11.9458175 52.8649342,11.9458175 C53.0711148,11.9458175 53.2687015,11.9329339 53.4576998,11.9071608 C53.6466987,11.8813876 53.8356945,11.8427308 54.0246934,11.7911845 C53.0109728,11.5850051 52.1647868,11.0781487 51.4861097,10.2706093 C50.8074326,9.46306991 50.4680994,8.51809358 50.4680994,7.43564435 C50.4680994,7.43564435 50.4680994,7.43564435 50.4680994,7.43564435 C50.4680994,7.43564435 50.4680994,7.43564435 50.4680994,7.43564435 L50.4680994,7.43564435 L50.4680994,7.384098 C50.7773697,7.55591515 51.0995217,7.68907554 51.4345652,7.78357317 C51.769608,7.87807081 52.117532,7.93391168 52.478348,7.95108979 C51.8769886,7.53873104 51.3959084,7.010402 51.0350924,6.36609069 C50.6742764,5.72177338 50.4938714,5.02163319 50.4938714,4.26563414 C50.4938714,4.26563414 50.4938714,4.26563414 50.4938714,4.26563414 C50.4938714,4.26563414 50.4938714,4.26563414 50.4938714,4.26563414 L50.4938714,4.26563414 C50.4938714,3.85327538 50.549711,3.45810074 50.6613922,3.08010421 C50.7730733,2.70210768 50.9234112,2.34989032 51.1124095,2.02343414 C51.6622244,2.69352462 52.2721651,3.3034617 52.9422519,3.85327538 C53.6123382,4.40309506 54.3339589,4.87558322 55.1071348,5.27076386 C55.8803108,5.66593851 56.6964273,5.98379963 57.555513,6.22434124 C58.4145988,6.46488285 59.2994457,6.61092683 60.2100718,6.66247317 L60.2358449,6.66247317 C60.2014827,6.49065602 60.1757095,6.3231334 60.1585314,6.15991131 C60.1413473,5.99668322 60.1327582,5.8291666 60.1327582,5.65734945 C60.1327582,5.65734945 60.1327582,5.65304892 60.1327582,5.64445986 C60.1327582,5.63587081 60.1327582,5.63157628 60.1327582,5.63157628 C60.1327582,4.41167212 60.5665897,3.37219816 61.4342645,2.51311242 C62.3019393,1.65402667 63.3457137,1.2244898 64.5656119,1.2244898 C64.5656119,1.2244898 64.5656119,1.2244898 64.5656119,1.2244898 C64.5656119,1.2244898 64.5656119,1.2244898 64.5656119,1.2244898 L64.5656119,1.2244898 C65.2013342,1.2244898 65.7983936,1.34905513 66.3567964,1.5981918 C66.9152051,1.84732246 67.3919878,2.18665623 67.7871685,2.61619911 C68.319798,2.51311242 68.8223599,2.36706844 69.294854,2.17806718 C69.7673482,1.98907191 70.2183637,1.77430347 70.6479066,1.53376186 L70.5963602,1.53376186 C70.4245431,2.06639143 70.1754124,2.53887959 69.8489622,2.95124435 C69.5225061,3.3636031 69.1359265,3.7072314 68.6891995,3.98214124 L68.6634323,3.98214124 C69.1273374,3.9305949 69.5783469,3.84468632 70.0164789,3.72441552 C70.4546168,3.60414471 70.8712641,3.45810074 71.2664447,3.28628359 L71.2148984,3.31205676 C70.9056263,3.75878375 70.5662925,4.17113651 70.1968911,4.54913304 C69.8274836,4.92712956 69.4366035,5.27075786 69.0242447,5.58002993 L68.9984716,5.58002993 Z" id="Fill-1"></path>
                </g>
            </g>
        </g>
    </g>
</svg>